<?xml version="1.0" standalone="no"?>
<!DOCTYPE svg PUBLIC "-//W3C//DTD SVG 20010904//EN"
 "http://www.w3.org/TR/2001/REC-SVG-20010904/DTD/svg10.dtd">
<svg version="1.0" xmlns="http://www.w3.org/2000/svg"
 width="620.000000pt" height="465.000000pt" viewBox="0 0 620.000000 465.000000"
 preserveAspectRatio="xMidYMid meet">

<g transform="translate(0.000000,465.000000) scale(0.100000,-0.100000)"
fill="#000000" stroke="none">
<path d="M3840 4038 c-20 -96 -54 -107 -195 -63 -93 29 -95 29 -95 12 0 -7 19
-24 43 -37 57 -33 133 -105 164 -157 30 -52 73 -175 73 -211 1 -20 3 -23 9
-12 7 13 22 520 15 520 -1 0 -7 -23 -14 -52z"/>
<path d="M3093 3985 c-18 -8 -33 -11 -33 -8 0 4 -11 -4 -25 -17 -20 -19 -27
-21 -40 -10 -23 19 -45 5 -45 -31 0 -19 -10 -43 -26 -61 -65 -78 -99 -187 -91
-291 7 -99 20 -136 74 -214 l46 -68 -12 -60 c-7 -33 -25 -103 -40 -155 -54
-180 -56 -193 -56 -322 0 -69 -3 -124 -6 -122 -3 2 -14 37 -24 79 -9 41 -19
75 -21 75 -2 0 -4 -136 -3 -302 1 -246 3 -296 13 -266 19 63 47 83 114 82 31
-1 91 -11 132 -23 79 -22 150 -28 150 -11 0 6 -4 10 -10 10 -5 0 -10 10 -10
23 0 18 -2 19 -10 7 -8 -13 -20 -10 -77 21 -52 27 -83 53 -130 110 -86 101
-95 123 -100 248 -6 119 9 224 56 398 49 183 56 244 37 362 -9 56 -16 113 -16
127 l0 26 35 -31 c20 -17 39 -31 44 -31 20 0 32 -65 38 -200 4 -102 10 -147
18 -147 6 0 32 -14 58 -31 25 -18 50 -32 56 -32 18 0 28 33 34 115 5 69 3 91
-20 161 l-26 81 -94 43 c-55 25 -104 55 -119 73 -14 16 -24 31 -22 32 2 1 31
-1 66 -5 37 -5 91 -22 135 -42 62 -30 78 -43 106 -87 37 -56 50 -68 26 -21
-34 66 -73 97 -177 141 -75 31 -115 55 -150 89 -50 48 -65 80 -29 60 11 -5 35
-10 53 -10 22 0 78 -26 172 -78 136 -75 140 -78 173 -137 18 -33 33 -55 33
-50 0 6 -15 37 -33 70 -33 59 -35 61 -160 125 -82 42 -127 71 -127 81 0 9 -13
40 -30 70 -33 60 -40 89 -16 69 8 -6 23 -10 33 -9 12 2 51 -32 114 -97 178
-185 202 -209 181 -182 -11 15 -78 89 -148 164 -119 125 -149 164 -127 164 4
0 14 -9 21 -20 7 -11 21 -20 31 -20 10 0 24 -7 31 -15 7 -8 17 -15 22 -15 6 0
0 9 -13 19 l-24 20 33 33 c17 19 32 39 32 46 0 16 -37 15 -77 -3z m63 -537
c26 -50 -7 -29 -56 35 -12 17 -12 17 14 6 15 -7 34 -26 42 -41z"/>
<path d="M3165 3840 c10 -11 20 -20 23 -20 3 0 -3 9 -13 20 -10 11 -20 20 -23
20 -3 0 3 -9 13 -20z"/>
<path d="M3250 3736 c0 -2 8 -10 18 -17 15 -13 16 -12 3 4 -13 16 -21 21 -21
13z"/>
<path d="M3305 3670 c10 -11 20 -20 23 -20 3 0 -3 9 -13 20 -10 11 -20 20 -23
20 -3 0 3 -9 13 -20z"/>
<path d="M3340 3626 c0 -2 8 -10 18 -17 15 -13 16 -12 3 4 -13 16 -21 21 -21
13z"/>
<path d="M3389 3554 c11 -22 23 -53 27 -68 3 -15 8 -25 11 -22 9 8 -20 91 -39
111 -17 19 -17 18 1 -21z"/>
<path d="M3431 3440 c0 -8 8 -42 18 -75 11 -33 20 -53 20 -45 0 8 -8 42 -18
75 -11 33 -20 53 -20 45z"/>
<path d="M3471 3290 c0 -8 4 -24 9 -35 l9 -20 0 20 c0 11 -4 27 -9 35 -9 13
-10 13 -9 0z"/>
<path d="M3484 3172 c-8 -39 -43 -124 -99 -239 -161 -327 -225 -490 -225 -567
1 -60 14 -45 23 25 6 42 53 162 108 272 11 23 45 98 76 167 30 69 58 129 63
134 13 13 133 -68 197 -132 29 -29 65 -76 80 -105 24 -45 28 -64 28 -137 0
-76 -4 -93 -33 -152 -24 -50 -45 -76 -81 -102 -67 -49 -75 -76 -25 -76 40 0
177 78 232 133 105 104 144 248 106 392 -20 81 -56 138 -129 211 -59 60 -191
154 -267 190 -20 9 -38 24 -40 32 -2 8 -8 -12 -14 -46z"/>
<path d="M3075 3141 c6 -38 30 -71 52 -71 9 0 11 -5 7 -12 -4 -7 2 -4 14 6 30
26 28 38 -3 24 -31 -14 -48 0 -64 52 l-11 35 5 -34z"/>
<path d="M3069 2968 c-59 -84 -99 -160 -124 -238 -22 -65 -26 -183 -7 -201 10
-10 12 3 12 67 0 43 6 99 14 125 20 64 78 183 125 257 22 34 39 62 36 62 -2 0
-28 -33 -56 -72z"/>
<path d="M1871 2149 c-88 -17 -157 -77 -175 -151 -9 -38 14 -96 70 -179 41
-60 49 -78 48 -115 -3 -122 -176 -234 -363 -235 -133 -1 -221 42 -221 109 0
92 200 183 403 185 48 1 87 4 87 8 0 14 -93 22 -209 17 -175 -8 -289 -56 -326
-137 -45 -100 45 -190 207 -207 223 -23 461 123 461 282 0 42 -3 49 -80 164
-32 47 -43 73 -43 101 0 77 94 142 206 144 68 0 90 -18 54 -45 -25 -19 -25
-20 -3 -20 25 0 54 35 46 56 -5 15 -65 35 -98 33 -11 -1 -40 -5 -64 -10z"/>
<path d="M3789 2101 c-18 -52 -31 -69 -83 -110 -180 -144 -314 -335 -324 -462
-4 -54 -3 -57 22 -63 35 -9 54 3 109 64 56 62 133 193 218 368 l64 133 58 29
c76 38 157 56 198 44 41 -12 73 -55 73 -97 0 -38 -32 -108 -72 -156 l-28 -33
-33 16 c-97 51 -237 14 -201 -53 23 -43 110 -50 193 -14 36 15 38 15 52 -3 19
-24 19 -82 1 -125 -15 -35 -68 -91 -121 -126 -91 -61 -230 -81 -294 -42 -32
19 -33 23 -28 65 6 53 -7 54 -40 4 -48 -71 -12 -122 90 -128 151 -10 326 73
398 187 34 52 40 135 14 175 -15 22 -14 24 24 50 45 31 87 87 107 143 17 50
17 68 -2 109 -17 36 -81 74 -125 74 -40 0 -138 -28 -192 -56 -27 -13 -51 -23
-53 -21 -2 2 2 18 8 35 9 23 9 35 1 43 -8 8 -17 -5 -34 -50z m-60 -148 c-25
-66 -120 -246 -172 -325 -58 -88 -110 -142 -131 -135 -41 13 3 142 91 266 46
64 198 221 214 221 5 0 4 -12 -2 -27z m250 -135 l23 -16 -31 -17 c-44 -22
-134 -17 -139 8 -2 10 2 25 9 34 17 19 105 14 138 -9z"/>
<path d="M5050 2112 c-26 -27 -82 -106 -125 -175 -64 -104 -82 -127 -101 -127
-13 0 -49 -9 -80 -21 -43 -17 -79 -43 -159 -119 -99 -95 -141 -119 -179 -104
-11 4 -6 19 25 66 72 112 46 194 -53 168 -130 -35 -273 -192 -266 -293 2 -35
7 -43 29 -51 42 -14 94 2 165 50 55 38 70 44 98 39 20 -4 47 -1 71 9 20 9 39
16 41 16 1 0 0 -15 -3 -34 -4 -26 0 -39 16 -55 28 -28 50 -27 102 8 l43 30 18
-30 c27 -44 63 -37 165 32 23 16 44 29 47 29 3 0 6 -16 6 -35 0 -64 57 -70
144 -15 l45 29 -17 -35 c-13 -29 -32 -43 -102 -77 -139 -67 -259 -205 -220
-252 19 -23 60 -18 115 14 60 35 101 78 174 186 48 70 62 84 110 105 84 37
259 179 232 188 -5 2 -32 -18 -58 -43 -50 -49 -135 -109 -178 -125 -14 -5 -25
-8 -25 -6 0 4 129 210 174 279 10 15 16 30 13 33 -12 13 -46 -20 -137 -132
-98 -122 -179 -189 -201 -167 -18 18 7 75 82 189 38 57 69 107 69 109 0 3 -6
5 -13 5 -8 0 -45 -37 -83 -82 -82 -97 -127 -140 -201 -190 -65 -45 -83 -47
-83 -13 0 49 45 122 149 238 169 190 251 313 251 377 0 26 -4 30 -27 30 -19 0
-40 -14 -73 -48z m80 6 c0 -40 -151 -258 -230 -333 -24 -23 -10 7 58 122 50
84 103 168 117 188 27 35 55 46 55 23z m-307 -334 c3 -3 -9 -29 -27 -58 -18
-28 -48 -75 -66 -104 -37 -60 -114 -132 -141 -132 -26 0 -25 49 2 102 49 96
202 222 232 192z m-377 -28 c3 -13 -1 -40 -10 -60 -12 -29 -20 -36 -44 -36
-46 0 -66 -21 -59 -62 4 -30 1 -40 -21 -61 -37 -34 -65 -47 -100 -47 -37 0
-46 21 -31 69 44 135 243 283 265 197z m572 -388 c-76 -127 -183 -217 -217
-184 -12 12 -10 21 9 60 24 51 80 101 161 146 76 42 84 38 47 -22z"/>
<path d="M2118 1795 c-79 -29 -186 -123 -223 -196 -25 -47 -25 -107 0 -126 26
-18 69 -10 110 21 l31 24 16 -29 c27 -47 77 -35 183 43 l60 44 -3 -42 c-3 -34
0 -44 19 -58 13 -9 33 -16 44 -16 28 0 114 42 152 74 31 26 33 26 58 10 30
-20 81 -13 119 17 l26 20 0 -45 c0 -36 5 -48 26 -65 15 -12 39 -21 54 -21 47
0 125 29 186 68 73 48 161 128 152 137 -4 4 -37 -20 -74 -54 -67 -62 -170
-121 -208 -121 -38 0 -66 28 -66 66 0 33 3 36 63 63 79 36 156 97 182 145 17
32 18 38 5 46 -48 30 -159 -25 -260 -130 -106 -110 -154 -136 -195 -107 -17
13 -15 17 29 72 78 95 107 175 63 175 -28 0 -95 -59 -116 -102 -11 -24 -21
-63 -21 -85 0 -36 -5 -45 -38 -71 -60 -48 -108 -68 -127 -52 -8 7 -15 19 -15
26 0 21 37 98 88 184 25 41 47 78 49 83 2 4 -3 7 -11 7 -9 0 -44 -35 -78 -77
-35 -43 -81 -95 -103 -116 -48 -46 -152 -117 -171 -117 -36 0 -7 72 88 213 33
49 58 91 55 93 -7 8 -37 -8 -37 -19 0 -6 -7 -1 -16 11 -17 25 -42 27 -96 7z
m80 -26 c3 -18 -136 -197 -192 -247 -109 -95 -99 36 12 160 80 88 171 133 180
87z m817 10 c10 -15 -86 -104 -144 -134 -65 -33 -78 -32 -56 3 30 47 68 83
120 113 54 31 70 35 80 18z m-365 -28 c0 -10 -21 -47 -47 -82 -40 -53 -48 -60
-51 -42 -3 22 29 95 56 126 20 23 42 22 42 -2z"/>
</g>
</svg>
